<?xml version="1.0" encoding="UTF-8"?>
<svg id="_Слой_1" data-name="Слой 1" xmlns="http://www.w3.org/2000/svg" viewBox="0 0 1047.1 537.7">
  <defs>
    <style>
      .cls-1 {
        letter-spacing: 0em;
      }

      .cls-2 {
        font-family: MyriadPro-Regular, 'Myriad Pro';
        font-size: 12px;
      }

      .cls-3 {
        letter-spacing: 0em;
      }

      .cls-4 {
        stroke-linecap: round;
      }

      .cls-4, .cls-5 {
        fill: none;
        stroke: #fff;
        stroke-linejoin: round;
        stroke-width: 1.9px;
      }

      .cls-6 {
        letter-spacing: 0em;
      }

      .cls-7 {
        letter-spacing: 0em;
      }

      .cls-8 {
        letter-spacing: 0em;
      }
    </style>
  </defs>
  <text class="cls-2" transform="translate(957.2 534.7)"><tspan class="cls-6" x="0" y="0">A</tspan><tspan x="7.2" y="0">dobe </tspan><tspan class="cls-1" x="35.9" y="0">I</tspan><tspan x="38.9" y="0">llust</tspan><tspan class="cls-8" x="59.9" y="0">r</tspan><tspan class="cls-3" x="63.8" y="0">a</tspan><tspan class="cls-7" x="69.5" y="0">t</tspan><tspan x="73.4" y="0">or</tspan></text>
  <path class="cls-5" d="m.9,12.2c0-2.1,1.7-3.8,3.8-3.8h15c2.1,0,3.8,1.7,3.8,3.8v5c0,.7-.6,1.2-1.2,1.2h-2.5c-.7,0-1.2-.6-1.2-1.2v-1.2H5.9v1.2c0,.7-.6,1.2-1.2,1.2h-2.5c-.7,0-1.2-.6-1.2-1.2v-5Z"/>
  <path class="cls-4" d="m3.4,8.4l1.9-5.8c.3-1,1.3-1.7,2.4-1.7h8.9c1.1,0,2,.7,2.4,1.7l1.9,5.8"/>
  <path class="cls-4" d="m20.9,8.4l2.5-1.2"/>
  <path class="cls-4" d="m3.4,8.4l-2.5-1.2"/>
  <path class="cls-4" d="m4.7,12.2h2.5"/>
  <path class="cls-4" d="m17.2,12.2h2.5"/>
</svg>