<?xml version="1.0" encoding="UTF-8"?>
<svg id="_Слой_1" data-name="Слой 1" xmlns="http://www.w3.org/2000/svg" viewBox="0 0 1049.13 542.69">
  <defs>
    <style>
      .cls-1 {
        letter-spacing: .01em;
      }

      .cls-2 {
        font-family: MyriadPro-Regular, 'Myriad Pro';
        font-size: 12px;
      }

      .cls-3 {
        letter-spacing: 0em;
      }

      .cls-4 {
        stroke-linecap: round;
      }

      .cls-4, .cls-5 {
        fill: none;
        stroke: #fff;
        stroke-linejoin: round;
        stroke-width: 1.88px;
      }

      .cls-6 {
        letter-spacing: -.01em;
      }

      .cls-7 {
        letter-spacing: 0em;
      }

      .cls-8 {
        letter-spacing: 0em;
      }
    </style>
  </defs>
  <text class="cls-2" transform="translate(959.19 539.69)"><tspan class="cls-6" x="0" y="0">A</tspan><tspan x="7.2" y="0">dobe </tspan><tspan class="cls-1" x="35.94" y="0">I</tspan><tspan x="38.93" y="0">llust</tspan><tspan class="cls-8" x="59.93" y="0">r</tspan><tspan class="cls-3" x="63.79" y="0">a</tspan><tspan class="cls-7" x="69.53" y="0">t</tspan><tspan x="73.43" y="0">or</tspan></text>
  <text class="cls-2" transform="translate(959.19 539.69)"><tspan class="cls-6" x="0" y="0">A</tspan><tspan x="7.2" y="0">dobe </tspan><tspan class="cls-1" x="35.94" y="0">I</tspan><tspan x="38.93" y="0">llust</tspan><tspan class="cls-8" x="59.93" y="0">r</tspan><tspan class="cls-3" x="63.79" y="0">a</tspan><tspan class="cls-7" x="69.53" y="0">t</tspan><tspan x="73.43" y="0">or</tspan></text>
  <text class="cls-2" transform="translate(959.19 539.69)"><tspan class="cls-6" x="0" y="0">A</tspan><tspan x="7.2" y="0">dobe </tspan><tspan class="cls-1" x="35.94" y="0">I</tspan><tspan x="38.93" y="0">llust</tspan><tspan class="cls-8" x="59.93" y="0">r</tspan><tspan class="cls-3" x="63.79" y="0">a</tspan><tspan class="cls-7" x="69.53" y="0">t</tspan><tspan x="73.43" y="0">or</tspan></text>
  <text class="cls-2" transform="translate(959.19 539.69)"><tspan class="cls-6" x="0" y="0">A</tspan><tspan x="7.2" y="0">dobe </tspan><tspan class="cls-1" x="35.94" y="0">I</tspan><tspan x="38.93" y="0">llust</tspan><tspan class="cls-8" x="59.93" y="0">r</tspan><tspan class="cls-3" x="63.79" y="0">a</tspan><tspan class="cls-7" x="69.53" y="0">t</tspan><tspan x="73.43" y="0">or</tspan></text>
  <text class="cls-2" transform="translate(959.19 539.69)"><tspan class="cls-6" x="0" y="0">A</tspan><tspan x="7.2" y="0">dobe </tspan><tspan class="cls-1" x="35.94" y="0">I</tspan><tspan x="38.93" y="0">llust</tspan><tspan class="cls-8" x="59.93" y="0">r</tspan><tspan class="cls-3" x="63.79" y="0">a</tspan><tspan class="cls-7" x="69.53" y="0">t</tspan><tspan x="73.43" y="0">or</tspan></text>
  <path class="cls-5" d="m.94,12.19c0-2.07,1.68-3.75,3.75-3.75h15c2.07,0,3.75,1.68,3.75,3.75v5c0,.69-.56,1.25-1.25,1.25h-2.5c-.69,0-1.25-.56-1.25-1.25v-1.25H5.94v1.25c0,.69-.56,1.25-1.25,1.25h-2.5c-.69,0-1.25-.56-1.25-1.25v-5Z"/>
  <path class="cls-4" d="m3.44,8.44l1.93-5.79c.34-1.02,1.3-1.71,2.37-1.71h8.9c1.08,0,2.03.69,2.37,1.71l1.93,5.79"/>
  <path class="cls-4" d="m20.94,8.44l2.5-1.25"/>
  <path class="cls-4" d="m3.44,8.44l-2.5-1.25"/>
  <path class="cls-4" d="m4.69,12.19h2.5"/>
  <path class="cls-4" d="m17.19,12.19h2.5"/>
</svg>